<svg xmlns="http://www.w3.org/2000/svg" style="display:none" aria-hidden="true">
  <!-- UDS UI icon sprite — Lucide v0.469.0 (ISC). Geometry only; stroke (1.5px),
       size and colour are governed by .uds-icon. Generated from
       resources/iconography/lucide — do not hand-edit, regenerate. -->
  <symbol id="i-grid" viewBox="0 0 24 24"><!-- lucide/layout-dashboard --><rect width="7" height="9" x="3" y="3" rx="1" />
  <rect width="7" height="5" x="14" y="3" rx="1" />
  <rect width="7" height="9" x="14" y="12" rx="1" />
  <rect width="7" height="5" x="3" y="16" rx="1" /></symbol>
  <symbol id="i-users" viewBox="0 0 24 24"><!-- lucide/users --><path d="M16 21v-2a4 4 0 0 0-4-4H6a4 4 0 0 0-4 4v2" />
  <circle cx="9" cy="7" r="4" />
  <path d="M22 21v-2a4 4 0 0 0-3-3.87" />
  <path d="M16 3.13a4 4 0 0 1 0 7.75" /></symbol>
  <symbol id="i-branch" viewBox="0 0 24 24"><!-- lucide/git-branch --><line x1="6" x2="6" y1="3" y2="15" />
  <circle cx="18" cy="6" r="3" />
  <circle cx="6" cy="18" r="3" />
  <path d="M18 9a9 9 0 0 1-9 9" /></symbol>
  <symbol id="i-building" viewBox="0 0 24 24"><!-- lucide/building-2 --><path d="M6 22V4a2 2 0 0 1 2-2h8a2 2 0 0 1 2 2v18Z" />
  <path d="M6 12H4a2 2 0 0 0-2 2v6a2 2 0 0 0 2 2h2" />
  <path d="M18 9h2a2 2 0 0 1 2 2v9a2 2 0 0 1-2 2h-2" />
  <path d="M10 6h4" />
  <path d="M10 10h4" />
  <path d="M10 14h4" />
  <path d="M10 18h4" /></symbol>
  <symbol id="i-check" viewBox="0 0 24 24"><!-- lucide/circle-check-big --><path d="M21.801 10A10 10 0 1 1 17 3.335" />
  <path d="m9 11 3 3L22 4" /></symbol>
  <symbol id="i-chart" viewBox="0 0 24 24"><!-- lucide/chart-column --><path d="M3 3v16a2 2 0 0 0 2 2h16" />
  <path d="M18 17V9" />
  <path d="M13 17V5" />
  <path d="M8 17v-3" /></symbol>
  <symbol id="i-cog" viewBox="0 0 24 24"><!-- lucide/settings --><path d="M12.22 2h-.44a2 2 0 0 0-2 2v.18a2 2 0 0 1-1 1.73l-.43.25a2 2 0 0 1-2 0l-.15-.08a2 2 0 0 0-2.73.73l-.22.38a2 2 0 0 0 .73 2.73l.15.1a2 2 0 0 1 1 1.72v.51a2 2 0 0 1-1 1.74l-.15.09a2 2 0 0 0-.73 2.73l.22.38a2 2 0 0 0 2.73.73l.15-.08a2 2 0 0 1 2 0l.43.25a2 2 0 0 1 1 1.73V20a2 2 0 0 0 2 2h.44a2 2 0 0 0 2-2v-.18a2 2 0 0 1 1-1.73l.43-.25a2 2 0 0 1 2 0l.15.08a2 2 0 0 0 2.73-.73l.22-.39a2 2 0 0 0-.73-2.73l-.15-.08a2 2 0 0 1-1-1.74v-.5a2 2 0 0 1 1-1.74l.15-.09a2 2 0 0 0 .73-2.73l-.22-.38a2 2 0 0 0-2.73-.73l-.15.08a2 2 0 0 1-2 0l-.43-.25a2 2 0 0 1-1-1.73V4a2 2 0 0 0-2-2z" />
  <circle cx="12" cy="12" r="3" /></symbol>
  <symbol id="i-search" viewBox="0 0 24 24"><!-- lucide/search --><circle cx="11" cy="11" r="8" />
  <path d="m21 21-4.3-4.3" /></symbol>
  <symbol id="i-bell" viewBox="0 0 24 24"><!-- lucide/bell --><path d="M10.268 21a2 2 0 0 0 3.464 0" />
  <path d="M3.262 15.326A1 1 0 0 0 4 17h16a1 1 0 0 0 .74-1.673C19.41 13.956 18 12.499 18 8A6 6 0 0 0 6 8c0 4.499-1.411 5.956-2.738 7.326" /></symbol>
  <symbol id="i-panel-left" viewBox="0 0 24 24"><!-- lucide/panel-left --><rect width="18" height="18" x="3" y="3" rx="2" />
  <path d="M9 3v18" /></symbol>
  <symbol id="i-panel-right" viewBox="0 0 24 24"><!-- lucide/panel-right --><rect width="18" height="18" x="3" y="3" rx="2" />
  <path d="M15 3v18" /></symbol>
  <symbol id="i-chevron" viewBox="0 0 24 24"><!-- lucide/chevron-right --><path d="m9 18 6-6-6-6" /></symbol>
  <symbol id="i-plus" viewBox="0 0 24 24"><!-- lucide/plus --><path d="M5 12h14" />
  <path d="M12 5v14" /></symbol>
  <symbol id="i-x" viewBox="0 0 24 24"><!-- lucide/x --><path d="M18 6 6 18" />
  <path d="m6 6 12 12" /></symbol>
  <symbol id="i-arrow" viewBox="0 0 24 24"><!-- lucide/arrow-right --><path d="M5 12h14" />
  <path d="m12 5 7 7-7 7" /></symbol>
  <symbol id="i-back" viewBox="0 0 24 24"><!-- lucide/arrow-left --><path d="m12 19-7-7 7-7" />
  <path d="M19 12H5" /></symbol>
  <symbol id="i-mail" viewBox="0 0 24 24"><!-- lucide/mail --><rect width="20" height="16" x="2" y="4" rx="2" />
  <path d="m22 7-8.97 5.7a1.94 1.94 0 0 1-2.06 0L2 7" /></symbol>
  <symbol id="i-lock" viewBox="0 0 24 24"><!-- lucide/lock --><rect width="18" height="11" x="3" y="11" rx="2" ry="2" />
  <path d="M7 11V7a5 5 0 0 1 10 0v4" /></symbol>
</svg>
